# Blender v2.82 (sub 7) OBJ File: 'Cube.blend'
# www.blender.org
mtllib Cube.mtl
o Cube
v 1.000000 1.000000 -1.000000
v 1.000000 -1.000000 -1.000000
v 1.000000 1.000000 1.000000
v 1.000000 -1.000000 1.000000
v -1.000000 1.000000 -1.000000
v -1.000000 -1.000000 -1.000000
v -1.000000 1.000000 1.000000
v -1.000000 -1.000000 1.000000
vt 0.794237 0.789769
vt 0.350129 0.789769
vt 0.350129 0.000245
vt 0.794237 0.000245
vt 0.083862 0.862186
vt 0.083862 0.320525
vt 0.388546 0.320525
vt 0.388546 0.862186
vt 0.266991 0.185391
vt 0.725135 0.185391
vt 0.725135 0.999867
vt 0.266991 0.999867
vt 0.728006 0.155318
vt 0.728006 0.970674
vt 0.269369 0.970674
vt 0.269369 0.155318
vt 0.921679 -0.000000
vt 0.921679 1.000000
vt 0.359179 1.000000
vt 0.359179 -0.000000
vt 0.742607 0.023692
vt 0.742607 0.850316
vt 0.277630 0.850316
vt 0.277630 0.023692
vn 0.0000 1.0000 0.0000
vn 0.0000 0.0000 -1.0000
vn 0.0000 -1.0000 0.0000
vn 0.0000 0.0000 1.0000
vn 1.0000 0.0000 0.0000
vn -1.0000 0.0000 0.0000
usemtl Material
s 1
f 1/1/1 5/2/1 7/3/1 3/4/1
usemtl Material.001
f 6/5/2 5/6/2 1/7/2 2/8/2
usemtl Material.002
f 6/9/3 2/10/3 4/11/3 8/12/3
usemtl Material.003
f 4/13/4 3/14/4 7/15/4 8/16/4
usemtl Material.004
f 2/17/5 1/18/5 3/19/5 4/20/5
usemtl Material.005
f 8/21/6 7/22/6 5/23/6 6/24/6
